<?xml version="1.0" encoding="UTF-8"?>
<!-- Generator: Adobe Illustrator 16.0.0, SVG Export Plug-In . SVG Version: 6.00 Build 0)  -->
<!DOCTYPE svg PUBLIC "-//W3C//DTD SVG 1.1//EN" "http://www.w3.org/Graphics/SVG/1.1/DTD/svg11.dtd">
<svg version="1.1" id="Capa_1" xmlns="http://www.w3.org/2000/svg" xmlns:xlink="http://www.w3.org/1999/xlink" x="0px" y="0px" width="194.443px" height="20px" viewBox="0 0 194.443 20" enable-background="new 0 0 194.443 20" xml:space="preserve">
<g>
	<g>
		<path fill-rule="evenodd" clip-rule="evenodd" d="M147.933,5.158c-0.094-0.929-0.18-1.815-0.651-2.64    c-0.45-0.786-1.49-1.371-1.98-1.583c-0.488-0.208-0.981-0.36-1.521-0.468c-0.562-0.113-1.121-0.165-1.692-0.214    c-1.07-0.092-2.129-0.103-3.203-0.103h-6.559c-2.92,0-5.854-0.039-8.739,0.463c-2.796,0.486-5.713,1.871-7.03,4.532h28.765    l-0.022,0.012H147.933z"/>
	</g>
	<g>
		<g>
			<path fill-rule="evenodd" clip-rule="evenodd" d="M186.585,5.146c-0.202-2.428-1.886-4.676-4.288-4.944     c-1.565-0.172-3.194-0.051-4.763-0.051c-3.344,0-6.685,0-10.027,0c-3.963,0-7.929,0-11.892,0c-0.503,0-1.479-0.251-1.703,0.258     c-0.685,1.581-1.37,3.159-2.057,4.737c4.906,0,9.813,0,14.72,0C173.245,5.146,179.915,5.146,186.585,5.146z"/>
		</g>
		<g>
			<path fill-rule="evenodd" clip-rule="evenodd" d="M43.447,5.146c-0.467-0.938-0.933-1.876-1.398-2.814     c-0.286-0.578-0.57-1.152-0.856-1.725c-0.078-0.158-0.13-0.457-0.324-0.457c-2.157,0-4.312,0-6.467,0     c0.827,1.666,1.654,3.331,2.481,4.996C39.071,5.146,41.259,5.146,43.447,5.146z"/>
		</g>
		<g>
			<path fill-rule="evenodd" clip-rule="evenodd" d="M146.639,8.653c-2.033,0-4.687,0-6.719,0c-0.576,1.298-1.156,3.001-2.299,3.916     c-1.275,1.016-2.656,1.194-4.243,1.351c-1.445,0.145-2.955,0.09-4.41,0.09c-1.454,0-2.938,0.025-4.388-0.105     c-1.304-0.12-3.278-0.107-4.043-1.388c-0.729-1.223,0.329-2.767,0.88-3.863c-0.047,0-0.093,0-0.137,0c-1.927,0-3.861,0-5.79,0     c-0.229,0-0.457,0-0.686,0c-0.067,0-0.269,0.694-0.317,0.832c-0.257,0.729-0.564,1.457-0.741,2.207     c-0.358,1.523-0.627,2.942-0.314,4.504c0.307,1.527,1.634,2.412,2.986,2.951c1.298,0.515,2.844,0.611,4.224,0.711     c1.433,0.102,2.884,0.127,4.316,0.127c3.094,0,6.193-0.056,9.276-0.309c2.893-0.237,6.004-0.788,8.034-3.063     c0.988-1.108,1.694-2.396,2.392-3.695c0.378-0.705,0.733-1.421,1.073-2.146L146.639,8.653z"/>
		</g>
		<g>
			<path fill-rule="evenodd" clip-rule="evenodd" d="M150.854,8.653c-0.129,0-0.484-0.066-0.598,0l-4.858,11.331h6.3     c0.276,0,0.441,0.094,0.521-0.178c0.094-0.335,0.285-0.633,0.413-0.953c0.274-0.678,0.552-1.357,0.88-2.01     c1.326-2.654,2.188-5.54,3.514-8.19c-0.078,0-0.159,0-0.239,0C154.81,8.653,152.833,8.653,150.854,8.653z"/>
		</g>
		<g>
			<path fill-rule="evenodd" clip-rule="evenodd" d="M165.065,8.653c-0.125,0-0.48-0.066-0.599,0l-4.857,11.331h6.302     c0.277,0,0.442,0.094,0.522-0.178c0.093-0.335,0.282-0.633,0.413-0.953c0.274-0.678,0.553-1.357,0.879-2.01     c1.328-2.654,2.188-5.54,3.512-8.19c-0.077,0-0.158,0-0.238,0C169.021,8.653,167.042,8.653,165.065,8.653z"/>
		</g>
		<g>
			<path fill-rule="evenodd" clip-rule="evenodd" d="M179.278,8.653c-0.127,0-0.481-0.066-0.596,0l-4.859,11.331h6.301     c0.274,0,0.442,0.094,0.521-0.178c0.097-0.335,0.285-0.633,0.413-0.953c0.274-0.678,0.552-1.357,0.879-2.01     c1.329-2.654,2.189-5.54,3.514-8.19c-0.077,0-0.158,0-0.235,0C183.234,8.653,181.256,8.653,179.278,8.653z"/>
		</g>
		<g>
			<path fill-rule="evenodd" clip-rule="evenodd" d="M56.584,5.137c1.874-1.663,3.748-3.324,5.623-4.987c-1.253,0-2.508,0-3.76,0     c-0.85,0-1.699,0-2.55,0c-0.162,0-0.81-0.101-0.936,0.01c-1.874,1.661-3.749,3.322-5.622,4.985c1.252,0,2.507,0,3.758,0     c0.853,0,1.702,0,2.554,0C55.81,5.146,56.458,5.249,56.584,5.137z"/>
		</g>
		<g>
			<path fill-rule="evenodd" clip-rule="evenodd" d="M40.163,10.255c0.104,0.224,0.337,0.49,0.235,0.732     c-0.386,0.922-0.775,1.844-1.161,2.766c-0.87,2.076-1.742,4.155-2.613,6.23c0.347,0,0.695,0,1.045,0c1.951,0,3.903,0,5.852,0     c0.291,0,0.413-0.648,0.513-0.881c0.412-0.95,0.823-1.904,1.235-2.859c0.439-1.017,0.877-2.034,1.316-3.05     c0.145-0.333,0.31-1.1,0.587-1.352c1.186-1.062,2.374-2.126,3.562-3.189c-3.774,0-7.548,0-11.32,0     C39.665,9.19,39.912,9.722,40.163,10.255z"/>
		</g>
		<g>
			<path fill-rule="evenodd" clip-rule="evenodd" d="M95.646,14.01c-0.911,0-2.742,0.448-3.245-0.558     c-0.665-1.328,0.372-2.95,0.9-4.18c0.104-0.207,0.206-0.411,0.312-0.619c-1.45-0.009-2.9-0.021-4.347-0.03     c-0.79-0.007-1.581-0.012-2.37-0.019c-0.084,0-0.343-0.049-0.417-0.002c-0.148,0.095-0.31,0.738-0.375,0.889     c-0.551,1.286-0.863,2.752-1.112,4.125c-0.26,1.415-0.228,3.059,0.533,4.32c1.371,2.277,4.403,2.048,6.73,2.048     c4.218,0,8.437,0,12.653,0c0.453,0,0.903,0,1.357,0c0.192,0,0.471-0.951,0.539-1.108c0.701-1.621,1.401-3.243,2.104-4.866     c-0.42,0-0.839,0-1.261,0C103.646,14.01,99.646,14.01,95.646,14.01z"/>
		</g>
		<g>
			<path fill-rule="evenodd" clip-rule="evenodd" d="M104.565,0.15c-2.092,0-4.182,0-6.275,0c-0.98,0-1.945-0.021-2.915,0.085     c-2.616,0.288-5.411,1.715-6.625,4.138c-0.178,0.266-0.323,0.539-0.467,0.825c3.053-0.021,6.105-0.053,9.154-0.053     c4.305,0,8.611,0,12.913,0c0.654,0,1.307,0,1.958,0c0.324,0,0.436,0.087,0.562-0.207c0.676-1.596,1.354-3.191,2.031-4.789     C111.455,0.15,108.011,0.15,104.565,0.15z"/>
		</g>
		<g>
			<path fill-rule="evenodd" clip-rule="evenodd" d="M80.582,8.653c-6.423,0-12.849,0-19.272,0c0.479,1.085,2.354,1.365,3.372,1.497     c3.225,0.416,6.447,0.873,9.677,1.232c0.839,0.094,1.812,0.419,2.019,0.968c0.205,0.493-0.16,0.852-0.286,0.99     c-0.228,0.247-0.729,0.378-1.047,0.457c-1.048,0.26-2.046,0.213-3.117,0.213c-4.216,0-8.426,0-12.639,0c-0.46,0-0.921,0-1.381,0     c-0.193,0-0.47,0.95-0.542,1.11c-0.7,1.622-1.401,3.245-2.103,4.864c5.942,0,11.885,0,17.825,0c2.729,0,5.857-0.872,7.656-3.038     c0.934-1.125,1.225-2.586,1.533-3.975c0.292-1.303,0.299-3.094-0.758-4.01C81.234,8.717,80.948,8.653,80.582,8.653z"/>
		</g>
		<g>
			<path fill-rule="evenodd" clip-rule="evenodd" d="M26.206,8.961c-0.222-0.286-0.607-0.308-0.939-0.308c-6.422,0-12.847,0-19.27,0     c0.954,0.982,2.05,1.326,3.406,1.5c3.23,0.417,6.505,0.711,9.719,1.23c0.87,0.141,1.968,0.561,2.048,1.014     c0.082,0.452-0.184,0.797-0.368,0.958c-0.185,0.162-0.684,0.355-1.104,0.452c-1.04,0.238-2.017,0.202-3.083,0.202     c-4.197,0-8.397,0-12.594,0c-0.458,0-0.918,0-1.377,0c-0.192,0-0.469,0.95-0.541,1.11c-0.7,1.622-1.403,3.245-2.104,4.864     c5.915,0,11.829,0,17.743,0c1.34,0,2.728-0.27,4.017-0.615c1.384-0.372,2.686-1.392,3.681-2.382     c0.938-0.937,1.415-2.738,1.556-4.016C27.131,11.776,27.391,9.749,26.206,8.961z"/>
		</g>
		<g>
			<path fill-rule="evenodd" clip-rule="evenodd" d="M81.963,0.15c-3.9,0-7.801,0-11.7,0c-1.105,0-2.382,0.241-3.395,0.672     c-0.654,0.278-1.271,0.652-1.818,1.106c-0.514,0.427-1.229,0.893-1.569,1.466c-0.349,0.625-0.925,1.097-1.137,1.804     c2.322-0.006,4.646-0.009,6.968-0.016c4.298-0.011,8.596-0.021,12.895-0.032c0.533-0.001,1.066-0.001,1.602-0.003     c0.328-0.001,0.325,0.047,0.458-0.259c0.685-1.581,1.372-3.158,2.059-4.738C84.87,0.15,83.417,0.15,81.963,0.15z"/>
		</g>
		<g>
			<path fill-rule="evenodd" clip-rule="evenodd" d="M14.908,0.15c-1.176,0-2.398,0.309-3.496,0.718     c-1.294,0.484-2.486,1.448-3.297,2.527C7.721,3.919,7.221,4.511,7.03,5.146c2.323,0,4.645,0,6.968,0c4.299,0,8.596,0,12.894,0     c0.535,0,1.069,0,1.603,0c0.326,0,0.324,0.048,0.457-0.258c0.686-1.581,1.373-3.158,2.059-4.738c-1.498,0-2.994,0-4.492,0     C22.65,0.15,18.78,0.15,14.908,0.15z"/>
		</g>
	</g>
	<path d="M191.913,0c1.408,0,2.53,1.142,2.53,2.567c0,1.448-1.122,2.578-2.541,2.578c-1.409,0-2.554-1.13-2.554-2.578   c0-1.426,1.145-2.567,2.554-2.567H191.913z M191.902,0.401c-1.134,0-2.062,0.97-2.062,2.167c0,1.221,0.929,2.18,2.073,2.18   c1.144,0.011,2.06-0.958,2.06-2.166c0-1.21-0.916-2.18-2.06-2.18H191.902z M191.421,4.062h-0.46V1.2   c0.241-0.036,0.471-0.07,0.814-0.07c0.435,0,0.721,0.091,0.894,0.217c0.17,0.125,0.262,0.319,0.262,0.593   c0,0.376-0.251,0.605-0.559,0.695v0.023c0.249,0.046,0.422,0.274,0.479,0.697c0.067,0.443,0.138,0.616,0.184,0.708h-0.482   c-0.066-0.091-0.137-0.353-0.194-0.73c-0.066-0.365-0.251-0.503-0.618-0.503h-0.319V4.062z M191.421,2.476h0.331   c0.377,0,0.701-0.138,0.701-0.49c0-0.252-0.184-0.503-0.701-0.503c-0.149,0-0.251,0.011-0.331,0.023V2.476z"/>
</g>
</svg>